HIERARCHY
ROOT Hips
{
	OFFSET 0.00000 0.00000 0.00000
	CHANNELS 6 Xposition Yposition Zposition Zrotation Yrotation Xrotation 
	JOINT LHipJoint
	{
		OFFSET 0 0 0
		CHANNELS 3 Zrotation Yrotation Xrotation
		JOINT LeftUpLeg
		{
			OFFSET 1.58161 -1.81893 0.78828
			CHANNELS 3 Zrotation Yrotation Xrotation
			JOINT LeftLeg
			{
				OFFSET 2.53374 -6.96141 0.00000
				CHANNELS 3 Zrotation Yrotation Xrotation
				JOINT LeftFoot
				{
					OFFSET 2.63509 -7.23986 0.00000
					CHANNELS 3 Zrotation Yrotation Xrotation
					JOINT LeftToeBase
					{
						OFFSET 0.14115 -0.38781 2.05350
						CHANNELS 3 Zrotation Yrotation Xrotation
						End Site
						{
							OFFSET 0.00000 -0.00000 1.05543
						}
					}
				}
			}
		}
	}
	JOINT RHipJoint
	{
		OFFSET 0 0 0
		CHANNELS 3 Zrotation Yrotation Xrotation
		JOINT RightUpLeg
		{
			OFFSET -1.11138 -1.81893 0.78828
			CHANNELS 3 Zrotation Yrotation Xrotation
			JOINT RightLeg
			{
				OFFSET -2.58392 -7.09926 0.00000
				CHANNELS 3 Zrotation Yrotation Xrotation
				JOINT RightFoot
				{
					OFFSET -2.66423 -7.31992 0.00000
					CHANNELS 3 Zrotation Yrotation Xrotation
					JOINT RightToeBase
					{
						OFFSET -0.18831 -0.51739 2.12114
						CHANNELS 3 Zrotation Yrotation Xrotation
						End Site
						{
							OFFSET -0.00000 -0.00000 1.09845
						}
					}
				}
			}
		}
	}
	JOINT LowerBack
	{
		OFFSET 0 0 0
		CHANNELS 3 Zrotation Yrotation Xrotation
		JOINT Spine
		{
			OFFSET -0.01511 1.97958 -0.08829
			CHANNELS 3 Zrotation Yrotation Xrotation
			JOINT Spine1
			{
				OFFSET 0.08344 1.97334 -0.04330
				CHANNELS 3 Zrotation Yrotation Xrotation
				JOINT Neck
				{
					OFFSET 0 0 0
					CHANNELS 3 Zrotation Yrotation Xrotation
					JOINT Neck1
					{
						OFFSET 0.00559 1.76246 0.31246
						CHANNELS 3 Zrotation Yrotation Xrotation
						JOINT Head
						{
							OFFSET -0.07011 1.80354 -0.30524
							CHANNELS 3 Zrotation Yrotation Xrotation
							End Site
							{
								OFFSET -0.02385 1.83547 -0.13906
							}
						}
					}
				}
				JOINT LeftShoulder
				{
					OFFSET 0 0 0
					CHANNELS 3 Zrotation Yrotation Xrotation
					JOINT LeftArm
					{
						OFFSET 3.20667 1.30156 -0.60240
						CHANNELS 3 Zrotation Yrotation Xrotation
						JOINT LeftForeArm
						{
							OFFSET 4.95663 -0.00000 0.00000
							CHANNELS 3 Zrotation Yrotation Xrotation
							JOINT LeftHand
							{
								OFFSET 3.38177 -0.00000 0.00000
								CHANNELS 3 Zrotation Yrotation Xrotation
								JOINT LeftFingerBase
								{
									OFFSET 0 0 0
									CHANNELS 3 Zrotation Yrotation Xrotation
									JOINT LeftHandIndex1
									{
										OFFSET 0.66291 -0.00000 0.00000
										CHANNELS 3 Zrotation Yrotation Xrotation
										End Site
										{
											OFFSET 0.53445 -0.00000 0.00000
										}
									}
								}
								JOINT LThumb
								{
									OFFSET 0 0 0
									CHANNELS 3 Zrotation Yrotation Xrotation
									End Site
									{
										OFFSET 0.54261 -0.00000 0.54261
									}
								}
							}
						}
					}
				}
				JOINT RightShoulder
				{
					OFFSET 0 0 0
					CHANNELS 3 Zrotation Yrotation Xrotation
					JOINT RightArm
					{
						OFFSET -3.06877 1.34672 -0.60964
						CHANNELS 3 Zrotation Yrotation Xrotation
						JOINT RightForeArm
						{
							OFFSET -5.08365 -0.00000 0.00000
							CHANNELS 3 Zrotation Yrotation Xrotation
							JOINT RightHand
							{
								OFFSET -3.35984 -0.00000 0.00000
								CHANNELS 3 Zrotation Yrotation Xrotation
								JOINT RightFingerBase
								{
									OFFSET 0 0 0
									CHANNELS 3 Zrotation Yrotation Xrotation
									JOINT RightHandIndex1
									{
										OFFSET -0.82076 -0.00000 0.00000
										CHANNELS 3 Zrotation Yrotation Xrotation
										End Site
										{
											OFFSET -0.66172 -0.00000 0.00000
										}
									}
								}
								JOINT RThumb
								{
									OFFSET 0 0 0
									CHANNELS 3 Zrotation Yrotation Xrotation
									End Site
									{
										OFFSET -0.67182 -0.00000 0.67182
									}
								}
							}
						}
					}
				}
			}
		}
	}
}
MOTION
Frames: 6
Frame Time: .0083333
-7.5219 17.8042 3.1908 -9.7275 44.1175 7.0028 0.0000 0.0000 0.0000 1.2815 9.7001 -4.3938 1.2111 6.9814 19.6603 -1.1177 20.0694 -16.4111 0.8473 -5.8710 -16.4106 0.0000 0.0000 0.0000 20.9017 30.7742 -25.7939 -2.9871 -10.6741 31.1886 1.3469 21.9210 -1.3950 -1.6315 -8.0521 22.8725 -12.0733 -10.4624 3.3416 -1.7404 -14.3120 -0.0917 4.7724 -7.1054 0.5039 2.3250 21.1801 -5.1408 -18.1595 31.1318 10.1996 -2.8885 14.0836 7.2962 0.0000 0.0000 0.0000 163.5412 -43.4437 -175.3829 21.0861 -31.9288 -6.0954 -0.0000 -0.0000 23.0509 -46.3648 -8.5239 -171.1637 -7.1250 0.0000 -0.0000 -40.9057 -70.0045 -154.1305 0.0000 0.0000 0.0000 25.9418 36.8385 -26.9770 -125.5350 54.6449 -90.2208 0.0000 0.0000 16.0051 -83.4136 26.5525 -75.5173 7.1250 -0.0000 -0.0000 -31.8336 40.2229 -47.9498
-7.5151 17.8064 3.1783 -9.6858 44.1455 7.1011 0.0000 0.0000 0.0000 1.1676 9.7182 -4.4977 1.2063 6.9679 19.6202 -1.1229 20.0885 -16.3734 0.8487 -5.8755 -16.4237 0.0000 0.0000 0.0000 20.7841 30.6161 -25.9351 -2.9828 -10.6671 31.1651 1.3596 22.0251 -1.4156 -1.5871 -7.9473 22.5540 -11.9843 -10.4588 3.3447 -1.7189 -14.3038 -0.0687 4.7495 -7.1035 0.5098 2.4261 21.1774 -5.3333 -18.1744 31.2205 10.5582 -2.8485 14.0803 7.4743 -0.0000 -0.0000 0.0000 163.4563 -43.6122 -175.1285 21.1032 -31.9486 -6.1045 -0.0000 -0.0000 22.7366 -46.1589 -8.2288 -171.5232 -7.1250 0.0000 -0.0000 -39.7878 -69.6871 -155.1801 -0.0000 -0.0000 0.0000 25.8663 36.7613 -26.8270 -125.3645 54.7022 -90.0817 0.0000 0.0000 15.3682 -83.4523 26.6056 -75.6250 7.1250 -0.0000 -0.0000 -31.8498 40.3227 -47.9688
-7.5100 17.8095 3.1614 -9.5072 44.1839 7.2885 0.0000 0.0000 0.0000 0.9226 9.6241 -4.5799 1.1991 6.9479 19.5612 -1.1199 20.1339 -16.5646 0.8193 -5.7755 -16.1343 0.0000 0.0000 0.0000 20.5362 30.4784 -26.0851 -2.9760 -10.6562 31.1288 1.3660 22.0533 -1.3693 -1.5869 -7.9467 22.5524 -11.9263 -10.4196 3.3731 -1.7403 -14.2447 0.0412 4.6965 -7.0821 0.5816 2.2697 21.1400 -5.8667 -17.9675 31.2453 10.9265 -2.7014 14.0314 7.6272 0.0000 -0.0000 0.0000 163.3451 -43.6012 -174.9030 21.1250 -31.9740 -6.1160 -0.0000 -0.0000 22.3708 -45.7219 -8.2781 -171.6009 -7.1250 0.0000 -0.0000 -38.9088 -69.7646 -155.7213 0.0000 -0.0000 0.0000 25.7731 36.7990 -26.8350 -125.1199 54.7836 -89.8820 0.0000 0.0000 14.9370 -83.4528 26.6532 -75.6489 7.1250 -0.0000 -0.0000 -31.8300 40.3597 -47.9318
-7.5055 17.8177 3.1455 -9.3692 44.2459 7.4529 0.0000 0.0000 0.0000 0.7182 9.5639 -4.6919 1.1933 6.9317 19.5132 -1.1311 20.2147 -16.6026 0.8443 -5.8609 -16.3814 0.0000 0.0000 0.0000 20.3132 30.4106 -26.2128 -2.9685 -10.6438 31.0879 1.3670 22.0263 -1.2897 -1.6215 -8.0286 22.8009 -11.8983 -10.4192 3.3844 -1.6451 -14.2318 0.2118 4.7575 -7.0946 0.7720 1.7445 21.1882 -6.6013 -17.8027 31.3936 11.1191 -2.5009 14.0279 7.7210 -0.0000 -0.0000 0.0000 162.9471 -43.6314 -174.5857 21.0514 -31.8883 -6.0771 -0.0000 -0.0000 22.3203 -45.3315 -8.2696 -171.7213 -7.1250 0.0000 -0.0000 -38.0157 -69.7727 -156.3272 -0.0000 -0.0000 0.0000 25.3997 37.1727 -27.0155 -124.7958 54.8903 -89.6170 0.0000 0.0000 14.5972 -83.2113 26.4137 -75.0185 7.1250 -0.0000 -0.0000 -31.6909 39.8047 -47.7397
-7.5034 17.8234 3.1312 -9.3049 44.3117 7.5345 0.0000 0.0000 0.0000 0.5950 9.6614 -4.8357 1.1913 6.9260 19.4962 -1.1602 20.3058 -16.3446 0.9473 -6.1987 -17.3622 0.0000 0.0000 0.0000 20.1737 30.3888 -26.2715 -2.9581 -10.6269 31.0316 1.3579 21.9790 -1.3372 -1.5713 -7.9095 22.4394 -11.8922 -10.4325 3.4441 -1.5681 -14.2514 0.3001 4.8296 -7.1139 0.8544 1.4983 21.2763 -6.8288 -17.8285 31.5535 11.1302 -2.4361 14.0760 7.7471 0.0000 0.0000 0.0000 162.7136 -43.8150 -174.3508 20.9364 -31.7540 -6.0164 -0.0000 -0.0000 22.3046 -45.1742 -8.0929 -171.9384 -7.1250 0.0000 -0.0000 -37.3069 -69.5797 -156.9645 0.0000 0.0000 0.0000 25.2563 37.4423 -26.9663 -124.5201 54.9800 -89.3913 0.0000 0.0000 14.0982 -83.0177 25.9736 -74.3768 7.1250 -0.0000 -0.0000 -31.6783 39.1566 -47.7666
-7.5025 17.8250 3.1149 -9.3204 44.4026 7.5587 0.0000 0.0000 0.0000 0.5396 9.7888 -5.0338 1.1932 6.9314 19.5123 -1.1476 20.2409 -16.3795 0.9644 -6.2526 -17.5192 0.0000 0.0000 0.0000 20.0877 30.3085 -26.3479 -2.9436 -10.6032 30.9531 1.3522 21.9511 -1.3727 -1.4729 -7.6689 21.7128 -11.7854 -10.3903 3.5108 -1.6388 -14.1997 0.3164 4.7248 -7.0836 0.7828 1.7435 21.2634 -6.4328 -17.9193 31.4680 10.9453 -2.5457 14.0833 7.6639 0.0000 -0.0000 0.0000 162.9743 -43.8639 -174.4665 20.8660 -31.6715 -5.9794 -0.0000 -0.0000 21.9950 -44.7658 -7.9220 -172.2157 -7.1250 0.0000 -0.0000 -36.0795 -69.4004 -157.9306 0.0000 -0.0000 0.0000 25.5638 37.3517 -26.7034 -124.2294 55.0733 -89.1532 0.0000 0.0000 13.5799 -82.9611 25.7377 -74.1277 7.1250 -0.0000 -0.0000 -31.7153 38.8776 -47.8499
